<svg viewBox="0 0 1418 577" xmlns="http://www.w3.org/2000/svg"><g fill="#960b06"><path d="m139.08 535.68h19.71v-12.14a14.22 14.22 0 0 0 -.41-4.29 2.8 2.8 0 0 0 -1.31-1.35 5.75 5.75 0 0 0 -2.85-.75h-1.5v-1.15h18.15v1.16h-1.5a6 6 0 0 0 -2.85.72 2.63 2.63 0 0 0 -1.36 1.52 15.07 15.07 0 0 0 -.36 4.15v27.38a14 14 0 0 0 .41 4.25 2.82 2.82 0 0 0 1.28 1.35 5.94 5.94 0 0 0 2.88.75h1.5v1.16h-18.15v-1.16h1.5a4.49 4.49 0 0 0 3.79-1.53q.78-1 .78-4.82v-12.93h-19.71v12.92a14 14 0 0 0 .41 4.25 2.8 2.8 0 0 0 1.31 1.35 5.76 5.76 0 0 0 2.85.75h1.53v1.16h-18.18v-1.16h1.5a4.53 4.53 0 0 0 3.82-1.53q.75-1 .75-4.82v-27.38a14.21 14.21 0 0 0 -.41-4.29 2.82 2.82 0 0 0 -1.28-1.35 5.93 5.93 0 0 0 -2.88-.75h-1.5v-1.15h18.18v1.16h-1.53a6 6 0 0 0 -2.85.72 2.71 2.71 0 0 0 -1.35 1.52 14.47 14.47 0 0 0 -.38 4.15z"/><path d="m214 544.22h-16.45l-2.88 6.7a10.6 10.6 0 0 0 -1.06 3.69 2.14 2.14 0 0 0 .92 1.71q.92.74 4 1v1.16h-13.37v-1.16a7.2 7.2 0 0 0 3.44-1.32q1.6-1.5 3.54-6.1l14.92-34.9h1.1l14.77 35.29q1.78 4.26 3.24 5.52a6.6 6.6 0 0 0 4.05 1.42v1.16h-16.74v-1.16a6.28 6.28 0 0 0 3.43-.84 2.18 2.18 0 0 0 .89-1.75 13 13 0 0 0 -1.25-4.35zm-.88-2.32-7.2-17.15-7.38 17.15z"/><path d="m286.72 558.42h-11.33l-14.39-19.83q-1.6.06-2.6.06h-.88-1v12.33q0 4 .88 5a4.46 4.46 0 0 0 3.57 1.38h1.66v1.16h-18.12v-1.16h1.6a4.26 4.26 0 0 0 3.85-1.75q.66-1 .66-4.6v-27.5q0-4-.88-5a4.6 4.6 0 0 0 -3.63-1.38h-1.6v-1.13h15.49a36.75 36.75 0 0 1 10 1 11.41 11.41 0 0 1 5.44 3.63 9.45 9.45 0 0 1 2.24 6.3 9.91 9.91 0 0 1 -2.55 6.79q-2.55 2.88-7.9 4.07l8.76 12.17a21.75 21.75 0 0 0 5.16 5.57 13 13 0 0 0 5.63 1.75zm-30.13-21.81h1 .72q6.07 0 9.15-2.63a8.41 8.41 0 0 0 3.08-6.7 8.74 8.74 0 0 0 -2.49-6.46 8.9 8.9 0 0 0 -6.59-2.49 27.67 27.67 0 0 0 -4.91.59z"/><path d="m303.27 558.42v-1.16h1.6a4.22 4.22 0 0 0 3.82-1.72q.69-1 .69-4.63v-27.4q0-4-.88-5a4.6 4.6 0 0 0 -3.63-1.38h-1.6v-1.13h17.27q9.51 0 14.47 2.16a17.22 17.22 0 0 1 8 7.2 22.2 22.2 0 0 1 2.99 11.64 21.23 21.23 0 0 1 -5.38 14.8q-6 6.63-18.4 6.63zm12.11-3.07a32 32 0 0 0 6.66.88 15.82 15.82 0 0 0 12-5.1q4.79-5.1 4.79-13.83t-4.79-13.86a16.16 16.16 0 0 0 -12.3-5.07 26.53 26.53 0 0 0 -6.41.91z"/><path d="m423.29 516v1.16a5.36 5.36 0 0 0 -2.69.59 5.86 5.86 0 0 0 -2 2.22 36.11 36.11 0 0 0 -2 5.23l-11.83 34.2h-1.25l-9.67-27.13-9.61 27.13h-1.13l-12.61-35.23q-1.41-3.94-1.78-4.66a4.12 4.12 0 0 0 -1.71-1.77 6.23 6.23 0 0 0 -2.93-.58v-1.16h15.71v1.16h-.75a3.79 3.79 0 0 0 -2.53.75 2.31 2.31 0 0 0 -.88 1.81 21.6 21.6 0 0 0 1.38 5l8.35 23.81 7-20.24-1.25-3.57-1-2.85a15.55 15.55 0 0 0 -1.47-2.75 3.84 3.84 0 0 0 -1-1 5.67 5.67 0 0 0 -1.56-.81 6.8 6.8 0 0 0 -1.88-.19v-1.12h16.52v1.16h-1.02a3.69 3.69 0 0 0 -2.57.75 2.63 2.63 0 0 0 -.81 2 20.08 20.08 0 0 0 1.41 5.57l8.13 23.06 8.07-23.37a19.65 19.65 0 0 0 1.38-5.38 2.25 2.25 0 0 0 -.45-1.34 2.4 2.4 0 0 0 -1.14-.88 9.13 9.13 0 0 0 -3.1-.44v-1.13z"/><path d="m464.43 544.22h-16.43l-2.88 6.7a10.6 10.6 0 0 0 -1.06 3.69 2.14 2.14 0 0 0 .92 1.71q.92.74 4 1v1.16h-13.37v-1.16a7.2 7.2 0 0 0 3.44-1.22q1.6-1.5 3.54-6.1l14.92-35h1.09l14.77 35.29q1.78 4.26 3.24 5.52a6.6 6.6 0 0 0 4.05 1.42v1.16h-16.73v-1.16a6.28 6.28 0 0 0 3.43-.84 2.18 2.18 0 0 0 .89-1.75 13 13 0 0 0 -1.25-4.35zm-.88-2.32-7.2-17.15-7.35 17.15z"/><path d="m537.17 558.42h-11.32l-14.36-19.84q-1.6.06-2.6.06h-.88-1v12.33q0 4 .88 5a4.46 4.46 0 0 0 3.57 1.38h1.66v1.16h-18.12v-1.16h1.6a4.27 4.27 0 0 0 3.85-1.75q.66-1 .66-4.6v-27.49q0-4-.88-5a4.6 4.6 0 0 0 -3.63-1.38h-1.6v-1.13h15.46a36.75 36.75 0 0 1 10 1 11.41 11.41 0 0 1 5.44 3.63 9.45 9.45 0 0 1 2.24 6.3 9.9 9.9 0 0 1 -2.55 6.79q-2.55 2.88-7.9 4.07l8.76 12.17a21.76 21.76 0 0 0 5.16 5.57 13 13 0 0 0 5.63 1.75zm-30.17-21.8h1 .72q6.07 0 9.15-2.63a8.41 8.41 0 0 0 3.08-6.7 8.74 8.74 0 0 0 -2.49-6.46 8.9 8.9 0 0 0 -6.59-2.49 27.67 27.67 0 0 0 -4.87.66z"/><path d="m566 518.31v16.77h9.32q3.63 0 4.85-1.1 1.63-1.44 1.82-5.07h1.16v14.77h-1.15a16.26 16.26 0 0 0 -.88-4 3.93 3.93 0 0 0 -1.85-1.72 9.43 9.43 0 0 0 -3.94-.62h-9.33v14a12.93 12.93 0 0 0 .25 3.43 2 2 0 0 0 .88 1 5.31 5.31 0 0 0 2.38.36h7.2a19.53 19.53 0 0 0 5.22-.5 7.79 7.79 0 0 0 3.13-2 24.09 24.09 0 0 0 4-5.85h1.25l-3.66 10.64h-32.71v-1.16h1.5a6 6 0 0 0 2.85-.72 2.63 2.63 0 0 0 1.36-1.5 14.75 14.75 0 0 0 .36-4.1v-27.56q0-4-.81-5a4.85 4.85 0 0 0 -3.75-1.25h-1.5v-1.13h32.69l.47 9.29h-1.22a14.65 14.65 0 0 0 -1.46-4.6 5 5 0 0 0 -2.36-1.91 14.19 14.19 0 0 0 -4.41-.47z"/><path d="m665.6 544.22h-16.42l-2.88 6.7a10.6 10.6 0 0 0 -1.06 3.69 2.14 2.14 0 0 0 .92 1.71q.92.74 4 1v1.16h-13.37v-1.16a7.2 7.2 0 0 0 3.44-1.22q1.6-1.5 3.54-6.1l14.92-35h1.09l14.77 35.29q1.78 4.26 3.24 5.52a6.6 6.6 0 0 0 4.05 1.42v1.16h-16.74v-1.16a6.28 6.28 0 0 0 3.43-.84 2.18 2.18 0 0 0 .89-1.75 13 13 0 0 0 -1.25-4.35zm-.88-2.32-7.2-17.15-7.38 17.15z"/><path d="m694.2 516h11.51l25.94 31.82v-24.47q0-3.91-.88-4.88a4.64 4.64 0 0 0 -3.66-1.31h-1.47v-1.16h14.77v1.16h-1.5a4.31 4.31 0 0 0 -3.82 1.63q-.69 1-.69 4.57v35.76h-1.13l-28-34.17v26.13q0 3.91.84 4.88a4.7 4.7 0 0 0 3.66 1.31h1.5v1.16h-14.72v-1.16h1.45a4.35 4.35 0 0 0 3.85-1.63q.69-1 .69-4.57v-29.5a19.39 19.39 0 0 0 -2.8-2.85 10.3 10.3 0 0 0 -2.8-1.28 10 10 0 0 0 -2.75-.28z"/><path d="m758.43 558.42v-1.16h1.57a4.22 4.22 0 0 0 3.82-1.72q.69-1 .69-4.63v-27.4q0-4-.88-5a4.6 4.6 0 0 0 -3.63-1.38h-1.6v-1.13h17.3q9.51 0 14.47 2.16a17.22 17.22 0 0 1 8 7.2 22.2 22.2 0 0 1 3 11.64 21.23 21.23 0 0 1 -5.38 14.8q-6 6.63-18.4 6.63zm12.11-3.07a32 32 0 0 0 6.66.88 15.82 15.82 0 0 0 12-5.1q4.8-5.13 4.8-13.83t-4.79-13.86a16.16 16.16 0 0 0 -12.3-5.07 26.53 26.53 0 0 0 -6.41.91z"/><path d="m881 515v14.7h-1.16a18.28 18.28 0 0 0 -2-6.73 10.51 10.51 0 0 0 -4.15-4 11.48 11.48 0 0 0 -5.57-1.47 7.58 7.58 0 0 0 -5.38 2 6 6 0 0 0 -2.13 4.52 5.36 5.36 0 0 0 1.34 3.54q1.94 2.35 9.23 6.26a63.86 63.86 0 0 1 8.12 4.9 12 12 0 0 1 3.35 4 10.61 10.61 0 0 1 1.17 4.85 11 11 0 0 1 -3.74 8.31 13.54 13.54 0 0 1 -9.62 3.49 20.37 20.37 0 0 1 -3.47-.28 35.42 35.42 0 0 1 -4-1.14 18.08 18.08 0 0 0 -3.86-1 1.63 1.63 0 0 0 -1.24.47 3.73 3.73 0 0 0 -.67 1.94h-1.16v-14.52h1.16a20.55 20.55 0 0 0 2.19 6.84 10.51 10.51 0 0 0 4.21 3.77 13 13 0 0 0 6.21 1.5 8.83 8.83 0 0 0 6.18-2.06 6.4 6.4 0 0 0 2.27-4.88 6.62 6.62 0 0 0 -.86-3.16 9.45 9.45 0 0 0 -2.67-3 76.93 76.93 0 0 0 -6.66-4 64.55 64.55 0 0 1 -7.74-4.87 13.13 13.13 0 0 1 -3.49-4 9.93 9.93 0 0 1 -1.19-4.82 10.45 10.45 0 0 1 3.5-7.87 12.49 12.49 0 0 1 8.92-3.3 17.91 17.91 0 0 1 7.17 1.66 7.34 7.34 0 0 0 2.47.78 1.86 1.86 0 0 0 1.33-.48 3.87 3.87 0 0 0 .83-2z"/><path d="m926.76 515a19.24 19.24 0 0 1 14.31 6.27 21.66 21.66 0 0 1 6.06 15.73 22.3 22.3 0 0 1 -6.1 16 20.39 20.39 0 0 1 -29.49.16q-6-6.23-6-16.11 0-10.11 6.88-16.49a20.31 20.31 0 0 1 14.34-5.56zm-.59 2.28a11.19 11.19 0 0 0 -9.14 4.22q-4.29 5.26-4.29 15.39 0 10.39 4.44 16a11 11 0 0 0 9 4.25 12.31 12.31 0 0 0 9.87-4.66q3.9-4.66 3.89-14.71 0-10.89-4.29-16.24a11.56 11.56 0 0 0 -9.49-4.22z"/><path d="m978.72 518.31v16.69h7.73a5.51 5.51 0 0 0 3.9-1.17q1.23-1.17 1.64-4.65h1.16v14.36h-1.15a8.39 8.39 0 0 0 -.64-3.63 4.06 4.06 0 0 0 -1.69-1.74 7 7 0 0 0 -3.21-.58h-7.73v13.33a14.07 14.07 0 0 0 .41 4.25 2.8 2.8 0 0 0 1.31 1.35 5.94 5.94 0 0 0 2.88.75h1.53v1.16h-18.21v-1.16h1.5a4.53 4.53 0 0 0 3.82-1.53q.75-1 .75-4.82v-27.41a14.06 14.06 0 0 0 -.41-4.25 2.82 2.82 0 0 0 -1.28-1.35 5.81 5.81 0 0 0 -2.88-.75h-1.5v-1.16h31.57l.41 9.32h-1.09a12.83 12.83 0 0 0 -1.89-4.36 6.23 6.23 0 0 0 -2.66-2 14.2 14.2 0 0 0 -4.9-.63z"/><path d="m1053.19 516 .47 9.95h-1.19a12 12 0 0 0 -.94-3.75 6.29 6.29 0 0 0 -2.58-2.67 9 9 0 0 0 -4.24-.86h-6v32.41q0 3.91.84 4.88a4.7 4.7 0 0 0 3.66 1.31h1.47v1.16h-18v-1.16h1.5a4.31 4.31 0 0 0 3.82-1.63q.69-1 .69-4.57v-32.41h-5.1a14.26 14.26 0 0 0 -4.22.44 5.8 5.8 0 0 0 -2.79 2.28 9.25 9.25 0 0 0 -1.38 4.57h-1.19l.5-9.95z"/><path d="m1128.93 516v1.16a5.36 5.36 0 0 0 -2.69.59 5.86 5.86 0 0 0 -2 2.22 36.11 36.11 0 0 0 -2 5.23l-11.83 34.2h-1.25l-9.67-27.13-9.61 27.13h-1.13l-12.61-35.23q-1.41-3.94-1.78-4.66a4.12 4.12 0 0 0 -1.71-1.77 6.23 6.23 0 0 0 -2.93-.58v-1.16h15.71v1.16h-.75a3.79 3.79 0 0 0 -2.53.75 2.31 2.31 0 0 0 -.88 1.81 21.6 21.6 0 0 0 1.38 5l8.35 23.81 7-20.24-1.25-3.57-1-2.85a15.55 15.55 0 0 0 -1.47-2.75 3.84 3.84 0 0 0 -1-1 5.67 5.67 0 0 0 -1.56-.81 6.8 6.8 0 0 0 -1.88-.19v-1.12h16.52v1.16h-1.13a3.69 3.69 0 0 0 -2.57.75 2.63 2.63 0 0 0 -.81 2 20.08 20.08 0 0 0 1.41 5.57l8.13 23.06 8.07-23.37a19.65 19.65 0 0 0 1.38-5.38 2.25 2.25 0 0 0 -.45-1.34 2.4 2.4 0 0 0 -1.14-.88 9.13 9.13 0 0 0 -3.1-.44v-1.13z"/><path d="m1170.08 544.22h-16.42l-2.88 6.7a10.6 10.6 0 0 0 -1.06 3.69 2.14 2.14 0 0 0 .92 1.71q.92.74 4 1v1.16h-13.36v-1.16a7.2 7.2 0 0 0 3.44-1.22q1.6-1.5 3.54-6.1l14.9-35h1.09l14.75 35.32q1.78 4.26 3.24 5.52a6.6 6.6 0 0 0 4.05 1.42v1.16h-16.74v-1.16a6.28 6.28 0 0 0 3.43-.84 2.18 2.18 0 0 0 .89-1.75 13 13 0 0 0 -1.25-4.35zm-.88-2.32-7.2-17.15-7.38 17.15z"/><path d="m1242.82 558.42h-11.33l-14.36-19.84q-1.6.06-2.6.06h-.88-1v12.33q0 4 .88 5a4.46 4.46 0 0 0 3.57 1.38h1.66v1.16h-18.18v-1.16h1.6a4.27 4.27 0 0 0 3.85-1.75q.66-1 .66-4.6v-27.49q0-4-.88-5a4.6 4.6 0 0 0 -3.63-1.38h-1.6v-1.13h15.46a36.75 36.75 0 0 1 10 1 11.41 11.41 0 0 1 5.44 3.63 9.45 9.45 0 0 1 2.24 6.3 9.9 9.9 0 0 1 -2.55 6.79q-2.55 2.88-7.9 4.07l8.76 12.17a21.76 21.76 0 0 0 5.16 5.57 13 13 0 0 0 5.63 1.75zm-30.13-21.81h1 .72q6.07 0 9.15-2.63a8.41 8.41 0 0 0 3.08-6.7 8.74 8.74 0 0 0 -2.49-6.46 8.9 8.9 0 0 0 -6.59-2.49 27.67 27.67 0 0 0 -4.91.59z"/><path d="m1271.66 518.31v16.77h9.34q3.63 0 4.85-1.1 1.63-1.44 1.82-5.07h1.16v14.77h-1.16a16.26 16.26 0 0 0 -.88-4 3.93 3.93 0 0 0 -1.85-1.72 9.43 9.43 0 0 0 -3.94-.62h-9.32v14a12.93 12.93 0 0 0 .25 3.43 2 2 0 0 0 .88 1 5.31 5.31 0 0 0 2.38.36h7.2a19.53 19.53 0 0 0 5.22-.5 7.79 7.79 0 0 0 3.13-2 24.09 24.09 0 0 0 4-5.85h1.25l-3.66 10.64h-32.69v-1.16h1.5a6 6 0 0 0 2.85-.72 2.63 2.63 0 0 0 1.36-1.5 14.75 14.75 0 0 0 .36-4.1v-27.56q0-4-.81-5a4.85 4.85 0 0 0 -3.75-1.25h-1.5v-1.13h32.69l.47 9.29h-1.22a14.65 14.65 0 0 0 -1.46-4.6 5 5 0 0 0 -2.36-1.91 14.19 14.19 0 0 0 -4.41-.47z"/><g stroke="#930000" stroke-miterlimit="10"><path d="m575.86 287.57q0 72.66-.29 118.36t-.29 49.22q-2.93.29-27.25 2.2t-62.7 1.9a271.32 271.32 0 0 1 -48.33-4.39q-24.32-4.39-41.89-12.6-23.44-10.84-37.94-29.59t-14.5-45.12q0-27.83 17.14-48.19t47.61-33q19-7.91 50.83-14.21a633.88 633.88 0 0 1 72.51-9.52q-1.76-22.85-11.43-37.5t-28.43-22.23a118.82 118.82 0 0 0 -28.71-7.47 271.76 271.76 0 0 0 -36.91-2.2q-13.18 0-22.41.59t-25 1.46l4.69-39q4.39-.29 17.43-1t35.6-.73q34.57 0 61.67 7.18t45 23.29a96.29 96.29 0 0 1 25.2 37.65q8.39 22.42 8.4 64.9zm-44.86 70.61v-25.18q0-15.23-.29-35.16-12.9.59-45.12 5.13t-54.2 13a84 84 0 0 0 -29.15 18.46q-12.74 12.3-12.74 30.47 0 19.93 10.84 32.08t29.66 18.62a156.47 156.47 0 0 0 31.79 7.18 294.13 294.13 0 0 0 36.77 2.2q5.86 0 14.36-.29l17.87-.59q0-2 .15-19.34t.06-46.58z" stroke-width="16"/><path d="m277.83 74.89v392.29" stroke-width="60"/><path d="m277.83 271.03h-238.41" stroke-width="60"/><path d="m39.42 466.74v-391.85" stroke-width="60"/><path d="m612.47 163.81a575.12 575.12 0 0 1 59.67-11.33 417.75 417.75 0 0 1 55.67-4q62 0 93.68 32t31.67 102.68v181.35h-54.67v-171.35q0-30-5.33-48.67t-15-29a51.08 51.08 0 0 0 -23.33-14.33 105.26 105.26 0 0 0 -29.67-4 258.74 258.74 0 0 0 -28.34 1.67q-15 1.67-29 4.33v261.35h-55.35z" stroke-width="4"/><path d="m1078.36 18 53.32-9v440q-17.35 5.19-44.33 10.35t-63 5.18q-32.13 0-58.46-11a125.58 125.58 0 0 1 -45-31.38q-18.64-20.38-28.91-49.5t-10.28-65.35q0-34.94 8.67-63.73t25.46-49.57a119.14 119.14 0 0 1 40.17-32.31q23.42-11.69 53.62-11.69 23.76 0 41.76 5.82t27 12.29zm0 199.43q-9-8.51-26.34-16.05a89.51 89.51 0 0 0 -36-7.54q-21.2 0-36.3 8.52a70.69 70.69 0 0 0 -24.72 23.31q-9.64 14.74-14.13 35.38a207.33 207.33 0 0 0 -4.5 44.23q0 53.07 24.41 81.91t63.62 28.81a244.77 244.77 0 0 0 33.73-2q13.81-2 20.24-3.93z" stroke-width="4"/><path d="m1273.51 420.45q37.8 0 57.6-14.4t19.8-43.2q0-17.4-7.2-29.7a75.73 75.73 0 0 0 -19.2-21.6 138.72 138.72 0 0 0 -27-16.2q-15-6.89-30.6-12.9a320.48 320.48 0 0 1 -34.5-16.2 144 144 0 0 1 -29.4-21 89.28 89.28 0 0 1 -20.4-28.2q-7.51-16.2-7.5-38.4 0-48.6 30.6-75.9t85.2-27.3a210.4 210.4 0 0 1 29.7 2.1q14.7 2.11 27.3 5.1a143.14 143.14 0 0 1 22.5 7.2 88.85 88.85 0 0 1 15.9 8.4l-15.6 41.4q-12-7.2-33-14.4t-46.8-7.2q-27 0-46.8 13.5t-19.8 40.5q0 15.61 5.7 26.4a61.13 61.13 0 0 0 15.6 18.9 123.36 123.36 0 0 0 23.1 14.7q13.19 6.61 28.8 13.2 22.8 9.6 41.7 19.2a130.55 130.55 0 0 1 32.4 22.8 93.42 93.42 0 0 1 21 31.2q7.5 18 7.5 43.8 0 48.6-32.7 74.7t-93.9 26.1a242.78 242.78 0 0 1 -37.2-2.7 217 217 0 0 1 -30.9-6.9q-13.5-4.19-23.7-8.4a92.41 92.41 0 0 1 -15.6-7.8l15-40.8q12 6.61 35.4 15.3t57 8.7z" stroke-width="9"/></g></g></svg>